<svg xmlns="http://www.w3.org/2000/svg" width="31" height="31" viewBox="0 0 31 31" fill="none">
  <path d="M12.5246 18.8411C11.9131 18.8411 11.4123 18.678 11.0221 18.3519C10.632 18.0258 10.4165 17.5628 10.3757 16.963H11.4414C11.4822 17.2658 11.6016 17.4988 11.7995 17.6618C11.9975 17.8249 12.2509 17.9064 12.5595 17.9064C12.8856 17.9064 13.1389 17.8191 13.3195 17.6444C13.5 17.4638 13.5902 17.2309 13.5902 16.9456C13.5902 16.6602 13.4825 16.436 13.267 16.273C13.0574 16.1041 12.7546 16.0196 12.3586 16.0196H11.9743V15.1287H12.245C12.6061 15.1287 12.8798 15.0559 13.0661 14.9103C13.2583 14.7647 13.3544 14.5521 13.3544 14.2726C13.3544 14.0164 13.2758 13.8184 13.1185 13.6786C12.9671 13.5389 12.7662 13.469 12.5158 13.469C12.2771 13.469 12.0791 13.536 11.9218 13.6699C11.7704 13.798 11.6802 13.9873 11.6511 14.2377H10.5941C10.6232 13.7136 10.8067 13.303 11.1444 13.006C11.488 12.709 11.951 12.5605 12.5333 12.5605C12.906 12.5605 13.235 12.6275 13.5204 12.7615C13.8057 12.8896 14.0241 13.0759 14.1755 13.3205C14.3327 13.5593 14.4113 13.833 14.4113 14.1416C14.4113 14.4444 14.3356 14.7152 14.1842 14.954C14.0328 15.1927 13.8144 15.382 13.5291 15.5217V15.5392C13.9018 15.6557 14.1842 15.8478 14.3764 16.1157C14.5686 16.3778 14.6647 16.6864 14.6647 17.0416C14.6647 17.3969 14.5744 17.7113 14.3939 17.985C14.2133 18.2529 13.96 18.4625 13.6339 18.614C13.3078 18.7654 12.938 18.8411 12.5246 18.8411Z" fill="#F9F9F9"/>
  <path d="M15.665 12.6916H17.0801C17.6508 12.6916 18.105 12.7236 18.4428 12.7877C18.7864 12.8459 19.0746 12.9332 19.3076 13.0497C19.7501 13.2768 20.0995 13.6262 20.3558 14.0979C20.6178 14.5638 20.7488 15.0995 20.7488 15.7052C20.7488 16.3108 20.6178 16.8495 20.3558 17.3212C20.0995 17.787 19.7501 18.1335 19.3076 18.3606C19.0746 18.4771 18.7864 18.5674 18.4428 18.6314C18.105 18.6897 17.6508 18.7188 17.0801 18.7188H15.665V12.6916ZM16.39 17.7929H17.4732C18.172 17.7929 18.7019 17.6152 19.063 17.26C19.4298 16.9048 19.6133 16.3865 19.6133 15.7052C19.6133 15.0238 19.4298 14.5056 19.063 14.1503C18.7019 13.7951 18.172 13.6175 17.4732 13.6175H16.39L16.7656 13.1109V18.2995L16.39 17.7929Z" fill="#F9F9F9"/>
  <path fill-rule="evenodd" clip-rule="evenodd" d="M0.554975 5.06307L0.554975 0.700684L1.55469 0.700684L1.55469 5.06307L0.554975 5.06307Z" fill="#F9F9F9"/>
  <path fill-rule="evenodd" clip-rule="evenodd" d="M0.561086 0.700971L4.55994 0.700971V1.70068L0.561086 1.70068V0.700971Z" fill="#F9F9F9"/>
  <path fill-rule="evenodd" clip-rule="evenodd" d="M30.5578 5.06307L30.5578 0.700684L29.5581 0.700684L29.5581 5.06307L30.5578 5.06307Z" fill="#F9F9F9"/>
  <path fill-rule="evenodd" clip-rule="evenodd" d="M30.5517 0.700971L26.5529 0.700971V1.70068L30.5517 1.70068V0.700971Z" fill="#F9F9F9"/>
  <path fill-rule="evenodd" clip-rule="evenodd" d="M29.5546 30.6995L29.5546 26.7007L30.5543 26.7007L30.5543 30.6995L29.5546 30.6995Z" fill="#F9F9F9"/>
  <path fill-rule="evenodd" clip-rule="evenodd" d="M26.5635 29.7015H30.5624V30.7012H26.5635V29.7015Z" fill="#F9F9F9"/>
  <path fill-rule="evenodd" clip-rule="evenodd" d="M1.55684 30.6995L1.55684 26.7007L0.557129 26.7007L0.557129 30.6995L1.55684 30.6995Z" fill="#F9F9F9"/>
  <path fill-rule="evenodd" clip-rule="evenodd" d="M4.55598 29.7015H0.557129L0.557129 30.7012H4.55598V29.7015Z" fill="#F9F9F9"/>
</svg>